# xmcd
#
# Track frame offsets: 
#        150
#        15224
#        28652
#        45663
#        67239
#        86727
#        98887
#        111741
#        123370
#        140162
#        158264
#
# Disc length: 2297 seconds
#
# Revision: 0
# Processed by: cddbd v1.5.2PL0 Copyright (c) Steve Scherf et al.
# Submitted via: ExactAudioCopy v1.0b1
#
DISCID=9208f70b
DTITLE=The Bluesbenders - Mayfield
DYEAR=2014
DGENRE=Blues
TTITLE0=Too Many Hoo Hoo
TTITLE1=Mayfield
TTITLE2=Cold Blooded Lover
TTITLE3=Last Hope
TTITLE4=Space And Time
TTITLE5=Soppin' Up The Gravy
TTITLE6=Funkinville
TTITLE7=Baby's Black Skillet
TTITLE8=That's What They Say About Ya
TTITLE9=Face In The Crowd
TTITLE10=Texas Twister
EXTD=
EXTT0=
EXTT1=
EXTT2=
EXTT3=
EXTT4=
EXTT5=
EXTT6=
EXTT7=
EXTT8=
EXTT9=
EXTT10=
PLAYORDER=
